<svg id="eQKY8vB0uVO1" xmlns="http://www.w3.org/2000/svg" xmlns:xlink="http://www.w3.org/1999/xlink" viewBox="0 0 1516 1516" shape-rendering="geometricPrecision" text-rendering="geometricPrecision"><ellipse rx="113.351156" ry="114.507801" transform="translate(397.753447 256.147034)" fill="#f4b54f" stroke-width="0"/><ellipse rx="113.351156" ry="114.507801" transform="translate(759.204837 181.44708)" fill="#f4b54f" stroke-width="0"/><ellipse rx="113.351156" ry="114.507801" transform="translate(1118.246553 256.147034)" fill="#f4b54f" stroke-width="0"/><path d="M279.073192,657.064212c58.917566-8.587141,197.68208-42.29132,372.171127-19.335034c52.288556,0,79.453784,97.194607-.689207,119.269873-218.443871-3.458087-310.820797,11.103295-349.427336,21.328107c142.876445,562.376025,338.872223,643.60715,338.872223,643.60715s97.373786,5.365915,248.810457-323.438103c-106.4943-31.439201-168.939659-22.238784-238.255344-37.092145-86.313017-18.495647-75.189555-122.968249-10.555113-122.968249s218.764829,17.647315,290.27688,46.442394c27.131396-55.305506,104.080992-321.064824,87.161559-437.028387-38.14887-248.875463-693.588157-245.537062-738.365246-12.373336-7.44017,52.742421-5.555675,72.329468,0,121.58773Z" transform="translate(107.307535 27.126394)" fill="#f4b54f" stroke-width="3.032"/></svg>
